#N canvas -8 -8 2560 997 10;
#X obj 574 396 r toggle1;
#X obj 771 454 r toggle2;
#X obj 906 454 r toggle3;
#X obj 765 309 r a_input_0;
#X obj 847 309 r a_input_1;
#X obj 130 350 r a_input_2;
#X obj 15 576 s~ sig;
#X obj 338 360 vline~;
#X obj 7 150 r button1;
#X obj 68 150 r button2;
#X obj 128 150 r button3;
#X obj 189 150 r button4;
#X obj 249 150 r button5;
#X obj 310 150 r button6;
#X obj 371 150 r button7;
#X obj 431 150 r button8;
#X text 6 120 BANGS FROM APP;
#X obj 339 278 t b;
#X obj 4 350 osc~;
#X obj 338 421 s~ envelope;
#X msg 7 217 261.63;
#X msg 65 217 293.66;
#X msg 123 217 329.63;
#X msg 181 217 349.23;
#X msg 239 217 392;
#X msg 297 217 440;
#X msg 355 217 493.88;
#X msg 413 217 523.25;
#X obj 495 223 t b;
#X obj 495 267 s update;
#X obj 703 309 r update;
#N canvas 888 593 411 398 trem 0;
#X obj 140 89 inlet;
#X obj 255 113 inlet;
#X obj 67 111 inlet~;
#X obj 313 138 inlet;
#X obj 73 362 outlet~;
#X obj 69 201 *~;
#X obj 71 266 *~;
#X obj 94 152 == 0;
#X obj 122 152 == 1;
#X obj 122 191 *~;
#X obj 156 242 *~;
#X obj 173 154 inlet~;
#X obj 196 273 *~;
#X obj 255 157 osc~ 2;
#X obj 253 201 *~ 1;
#X obj 136 121 tgl 15 0 empty empty empty 17 7 0 10 -262144 -1 -1 0
1;
#X obj 304 187 * 2;
#X obj 255 135 / 60;
#X obj 313 160 / 3000;
#X obj 248 228 +~;
#X connect 0 0 15 0;
#X connect 1 0 17 0;
#X connect 2 0 5 0;
#X connect 2 0 9 0;
#X connect 3 0 18 0;
#X connect 5 0 6 0;
#X connect 6 0 4 0;
#X connect 7 0 5 1;
#X connect 8 0 9 1;
#X connect 9 0 10 0;
#X connect 10 0 12 0;
#X connect 11 0 10 1;
#X connect 11 0 6 1;
#X connect 12 0 4 0;
#X connect 13 0 14 0;
#X connect 14 0 19 0;
#X connect 15 0 7 0;
#X connect 15 0 8 0;
#X connect 16 0 14 1;
#X connect 16 0 19 1;
#X connect 17 0 13 0;
#X connect 18 0 16 0;
#X connect 19 0 12 1;
#X restore 582 454 pd trem;
#X obj 537 415 r~ sig;
#N canvas -15 693 450 300 delay 0;
#X obj 112 32 inlet;
#X obj 240 54 inlet;
#X obj 60 52 inlet~;
#X obj 289 54 inlet;
#X obj 61 271 outlet~;
#X obj 59 173 *~;
#X obj 82 80 == 0;
#X obj 128 86 == 1;
#X obj 84 121 *~;
#X obj 117 157 delwrite~ delay 500;
#X obj 240 76 / 800;
#X obj 119 196 delread~ delay 150;
#X obj 246 173 *~;
#X obj 112 56 tgl 15 0 empty empty empty 17 7 0 10 -262144 -1 -1 0
1;
#X connect 0 0 13 0;
#X connect 1 0 10 0;
#X connect 2 0 5 0;
#X connect 2 0 8 0;
#X connect 5 0 4 0;
#X connect 6 0 5 1;
#X connect 7 0 8 1;
#X connect 8 0 9 0;
#X connect 10 0 12 1;
#X connect 11 0 12 0;
#X connect 11 0 4 0;
#X connect 12 0 9 0;
#X connect 13 0 6 0;
#X connect 13 0 7 0;
#X restore 779 510 pd delay;
#N canvas 436 694 450 300 reverb 0;
#X obj 115 15 inlet;
#X obj 228 78 inlet;
#X obj 17 25 inlet~;
#X obj 279 77 inlet;
#X obj 60 266 outlet~;
#X obj 95 69 == 0;
#X obj 128 69 == 1;
#X obj 32 141 *~;
#X obj 82 143 *~;
#X obj 82 165 delwrite~ reverb 10000;
#X obj 228 166 sig~;
#X obj 228 188 vd~ reverb;
#X obj 228 210 *~;
#X obj 279 99 / 1138;
#X obj 228 232 hip~ 5;
#X obj 113 38 tgl 15 0 empty empty empty 17 7 0 10 -262144 -1 -1 0
1;
#X connect 0 0 15 0;
#X connect 1 0 10 0;
#X connect 2 0 7 0;
#X connect 2 0 8 0;
#X connect 3 0 13 0;
#X connect 5 0 7 1;
#X connect 6 0 8 1;
#X connect 7 0 4 0;
#X connect 8 0 9 0;
#X connect 10 0 11 0;
#X connect 11 0 12 0;
#X connect 12 0 9 0;
#X connect 12 0 14 0;
#X connect 13 0 12 1;
#X connect 14 0 4 0;
#X connect 15 0 5 0;
#X connect 15 0 6 0;
#X restore 911 510 pd reverb;
#X obj 715 476 r~ tremelo;
#X obj 858 476 r~ delay;
#X obj 582 499 s~ tremelo;
#X obj 779 532 s~ delay;
#X obj 911 538 s~ output;
#X obj 262 509 r~ output;
#X obj 264 586 dac~;
#X obj 645 354 r~ envelope;
#X obj 495 201 r onOff;
#X obj 765 354 float;
#X obj 847 354 float;
#X obj 15 545 *~;
#X obj 66 509 r onOff;
#X obj 72 389 float;
#X obj 69 350 r update;
#X obj 73 408 / 6;
#X msg 338 329 0.4 200 \, 0.5 500 200 \, 0.9 290 700 \, 0 10 970;
#X obj 73 429 osc~;
#X obj 3 478 *~;
#X obj 495 245 metro 150;
#X connect 0 0 31 1;
#X connect 1 0 33 1;
#X connect 2 0 34 1;
#X connect 3 0 44 1;
#X connect 4 0 45 1;
#X connect 4 0 33 3;
#X connect 5 0 48 1;
#X connect 7 0 19 0;
#X connect 8 0 20 0;
#X connect 9 0 21 0;
#X connect 10 0 22 0;
#X connect 11 0 23 0;
#X connect 12 0 24 0;
#X connect 13 0 25 0;
#X connect 14 0 26 0;
#X connect 15 0 27 0;
#X connect 17 0 51 0;
#X connect 18 0 53 0;
#X connect 20 0 17 0;
#X connect 20 0 18 0;
#X connect 21 0 17 0;
#X connect 21 0 18 0;
#X connect 22 0 17 0;
#X connect 22 0 18 0;
#X connect 23 0 17 0;
#X connect 23 0 18 0;
#X connect 24 0 17 0;
#X connect 24 0 18 0;
#X connect 25 0 17 0;
#X connect 25 0 18 0;
#X connect 26 0 17 0;
#X connect 26 0 18 0;
#X connect 27 0 17 0;
#X connect 27 0 18 0;
#X connect 28 0 54 0;
#X connect 30 0 44 0;
#X connect 30 0 45 0;
#X connect 31 0 37 0;
#X connect 32 0 31 0;
#X connect 33 0 38 0;
#X connect 34 0 39 0;
#X connect 35 0 33 0;
#X connect 36 0 34 0;
#X connect 40 0 41 0;
#X connect 40 0 41 1;
#X connect 42 0 31 2;
#X connect 43 0 28 0;
#X connect 44 0 31 3;
#X connect 44 0 33 2;
#X connect 44 0 34 2;
#X connect 45 0 31 4;
#X connect 45 0 34 3;
#X connect 46 0 6 0;
#X connect 47 0 46 1;
#X connect 48 0 50 0;
#X connect 49 0 48 0;
#X connect 50 0 52 0;
#X connect 51 0 7 0;
#X connect 52 0 53 1;
#X connect 53 0 46 0;
#X connect 54 0 29 0;
